<?xml version="1.0" standalone="no"?>
<!DOCTYPE svg PUBLIC "-//W3C//DTD SVG 20010904//EN"
 "http://www.w3.org/TR/2001/REC-SVG-20010904/DTD/svg10.dtd">
<svg version="1.0" xmlns="http://www.w3.org/2000/svg"
 width="900.000000pt" height="900.000000pt" viewBox="0 0 900.000000 900.000000"
 preserveAspectRatio="xMidYMid meet">
<metadata>
Created by potrace 1.14, written by Peter Selinger 2001-2017
</metadata>
<g transform="translate(0.000000,900.000000) scale(0.100000,-0.100000)"
fill="#000000" stroke="none">
<path d="M0 4500 l0 -4500 4500 0 4500 0 0 4500 0 4500 -4500 0 -4500 0 0
-4500z m4895 2607 c37 -11 43 -18 88 -107 124 -247 258 -590 352 -900 81 -268
128 -495 170 -820 22 -166 31 -649 16 -839 -33 -418 -132 -880 -268 -1251 -25
-69 -52 -141 -59 -160 -24 -68 -115 -271 -180 -402 -83 -171 -87 -173 -265
-173 -134 0 -173 10 -183 48 -3 11 19 75 53 156 323 756 468 1484 448 2256
-11 422 -61 782 -167 1195 -45 177 -171 550 -235 695 -7 17 -31 71 -53 120
-64 143 -60 163 33 186 47 11 206 9 250 -4z m-1183 -1334 c95 -36 119 -84 126
-248 6 -166 -7 -224 -63 -281 -52 -52 -81 -59 -230 -58 -93 0 -117 4 -152 22
-86 45 -122 152 -109 330 11 153 51 219 150 242 62 15 233 11 278 -7z m21
-1852 c34 -16 55 -36 74 -68 24 -42 27 -57 31 -178 6 -165 -9 -225 -67 -278
-50 -45 -123 -61 -246 -55 -163 9 -218 58 -238 217 -13 104 2 245 31 295 42
72 111 97 257 93 91 -2 118 -6 158 -26z"/>
</g>
</svg>
